<?xml version="1.0" standalone="no"?>
<!DOCTYPE svg PUBLIC "-//W3C//DTD SVG 20010904//EN"
 "http://www.w3.org/TR/2001/REC-SVG-20010904/DTD/svg10.dtd">
<svg version="1.0" xmlns="http://www.w3.org/2000/svg"
 width="440.000000pt" height="440.000000pt" viewBox="0 0 440.000000 440.000000"
 preserveAspectRatio="xMidYMid meet">
<metadata>
Created by potrace 1.11, written by Peter Selinger 2001-2013
</metadata>
<g transform="translate(0.000000,440.000000) scale(0.100000,-0.100000)"
fill="#000000" stroke="none">
<path d="M0 2200 l0 -2200 2200 0 2200 0 0 2200 0 2200 -2200 0 -2200 0 0
-2200z m2475 1970 c153 -21 351 -68 438 -105 14 -6 17 -1 17 33 0 23 7 49 18
61 17 22 19 22 394 19 l378 -3 32 -33 33 -32 3 -1869 c2 -1480 0 -1877 -10
-1907 -8 -24 -26 -47 -48 -61 l-34 -24 -347 3 c-331 3 -348 4 -369 23 -50 44
-50 47 -50 631 l0 546 -22 -5 c-13 -3 -83 -22 -156 -41 -211 -57 -336 -70
-647 -70 -200 0 -302 5 -395 17 -708 98 -1065 418 -1182 1057 -29 160 -31 532
-4 695 76 459 252 722 602 900 184 94 400 148 719 179 77 8 551 -3 630 -14z
m41 -3353 c24 -28 24 -29 24 -267 l0 -238 -26 -31 -26 -31 -918 0 c-505 0
-926 3 -935 6 -39 15 -45 53 -45 299 l0 237 29 29 30 29 921 -2 922 -3 24 -28z"/>
<path d="M1957 3539 c-407 -43 -597 -283 -597 -754 0 -399 133 -640 406 -736
183 -65 505 -65 688 0 289 102 422 366 402 801 -11 249 -64 401 -180 515 -103
102 -231 154 -426 175 -108 11 -181 11 -293 -1z"/>
</g>
</svg>
